<svg width="44" height="45" viewBox="0 0 44 45" fill="none" xmlns="http://www.w3.org/2000/svg">
<g filter="url(#filter0_d_183_1461)">
<g clip-path="url(#clip0_183_1461)">
<rect x="11" y="11.1549" width="22" height="22" rx="11" fill="white"/>
<path d="M17.6458 29.4883C17.6458 29.3049 17.6917 29.1216 17.8292 28.9841L24.7042 22.1549L17.8292 15.3258C17.5542 15.0508 17.5542 14.6383 17.8292 14.3633C18.1042 14.0883 18.5167 14.0883 18.7917 14.3633L26.125 21.6966C26.4 21.9716 26.4 22.3841 26.125 22.6591L18.7917 29.9924C18.5167 30.2674 18.1042 30.2674 17.8292 29.9924C17.6917 29.8549 17.6458 29.6716 17.6458 29.4883Z" fill="#8E8E8E"/>
</g>
</g>
<defs>
<filter id="filter0_d_183_1461" x="7" y="9.15494" width="30" height="30" filterUnits="userSpaceOnUse" color-interpolation-filters="sRGB">
<feFlood flood-opacity="0" result="BackgroundImageFix"/>
<feColorMatrix in="SourceAlpha" type="matrix" values="0 0 0 0 0 0 0 0 0 0 0 0 0 0 0 0 0 0 127 0" result="hardAlpha"/>
<feOffset dy="2"/>
<feGaussianBlur stdDeviation="2"/>
<feComposite in2="hardAlpha" operator="out"/>
<feColorMatrix type="matrix" values="0 0 0 0 0 0 0 0 0 0 0 0 0 0 0 0 0 0 0.25 0"/>
<feBlend mode="normal" in2="BackgroundImageFix" result="effect1_dropShadow_183_1461"/>
<feBlend mode="normal" in="SourceGraphic" in2="effect1_dropShadow_183_1461" result="shape"/>
</filter>
<clipPath id="clip0_183_1461">
<rect x="11" y="11.1549" width="22" height="22" rx="11" fill="white"/>
</clipPath>
</defs>
</svg>
